<mxfile host="app.diagrams.net" agent="Mozilla/5.0 (Windows NT 10.0; Win64; x64) AppleWebKit/537.36 (KHTML, like Gecko) Chrome/129.0.0.0 Safari/537.36" version="24.7.16" pages="2">
  <diagram name="Page-1" id="hWi4kzAwpnPmGMYckLlB">
    <mxGraphModel dx="1956" dy="1040" grid="1" gridSize="10" guides="1" tooltips="1" connect="1" arrows="1" fold="1" page="1" pageScale="1" pageWidth="850" pageHeight="1100" math="0" shadow="0">
      <root>
        <mxCell id="0" />
        <mxCell id="1" parent="0" />
        <mxCell id="FSPJa_IPfdp1LUm7yT-P-1" value="Mulai" style="ellipse;whiteSpace=wrap;html=1;" parent="1" vertex="1">
          <mxGeometry x="135" y="70" width="105" height="40" as="geometry" />
        </mxCell>
        <mxCell id="FSPJa_IPfdp1LUm7yT-P-2" value="" style="endArrow=classic;html=1;rounded=0;exitX=0.54;exitY=0.96;exitDx=0;exitDy=0;exitPerimeter=0;" parent="1" edge="1">
          <mxGeometry width="50" height="50" relative="1" as="geometry">
            <mxPoint x="186.01" y="110" as="sourcePoint" />
            <mxPoint x="186" y="140" as="targetPoint" />
          </mxGeometry>
        </mxCell>
        <mxCell id="FSPJa_IPfdp1LUm7yT-P-3" value="usia : int" style="shape=hexagon;perimeter=hexagonPerimeter2;whiteSpace=wrap;html=1;fixedSize=1;" parent="1" vertex="1">
          <mxGeometry x="133.75" y="140" width="107.5" height="40" as="geometry" />
        </mxCell>
        <mxCell id="FSPJa_IPfdp1LUm7yT-P-5" value="input usia" style="shape=parallelogram;perimeter=parallelogramPerimeter;whiteSpace=wrap;html=1;fixedSize=1;" parent="1" vertex="1">
          <mxGeometry x="135" y="210" width="100" height="40" as="geometry" />
        </mxCell>
        <mxCell id="FSPJa_IPfdp1LUm7yT-P-8" value="" style="endArrow=classic;html=1;rounded=0;exitX=0.54;exitY=0.96;exitDx=0;exitDy=0;exitPerimeter=0;" parent="1" edge="1">
          <mxGeometry width="50" height="50" relative="1" as="geometry">
            <mxPoint x="184.59" y="180" as="sourcePoint" />
            <mxPoint x="184.58" y="210" as="targetPoint" />
          </mxGeometry>
        </mxCell>
        <mxCell id="FSPJa_IPfdp1LUm7yT-P-13" value="" style="endArrow=classic;html=1;rounded=0;exitX=0.54;exitY=0.96;exitDx=0;exitDy=0;exitPerimeter=0;" parent="1" edge="1">
          <mxGeometry width="50" height="50" relative="1" as="geometry">
            <mxPoint x="184.91" y="250" as="sourcePoint" />
            <mxPoint x="184.9" y="280" as="targetPoint" />
          </mxGeometry>
        </mxCell>
        <mxCell id="FSPJa_IPfdp1LUm7yT-P-14" value="usia (0-12)" style="rhombus;whiteSpace=wrap;html=1;" parent="1" vertex="1">
          <mxGeometry x="152.5" y="280" width="65" height="70" as="geometry" />
        </mxCell>
        <mxCell id="FSPJa_IPfdp1LUm7yT-P-15" value="usia (13-19)" style="rhombus;whiteSpace=wrap;html=1;" parent="1" vertex="1">
          <mxGeometry x="270" y="280" width="70" height="60" as="geometry" />
        </mxCell>
        <mxCell id="FSPJa_IPfdp1LUm7yT-P-17" value="false" style="endArrow=classic;html=1;rounded=0;exitX=0.54;exitY=0.96;exitDx=0;exitDy=0;exitPerimeter=0;" parent="1" edge="1">
          <mxGeometry width="50" height="50" relative="1" as="geometry">
            <mxPoint x="217.5" y="314.83" as="sourcePoint" />
            <mxPoint x="270" y="315" as="targetPoint" />
          </mxGeometry>
        </mxCell>
        <mxCell id="FSPJa_IPfdp1LUm7yT-P-18" value="usia (20-64" style="rhombus;whiteSpace=wrap;html=1;" parent="1" vertex="1">
          <mxGeometry x="392" y="275" width="65" height="70" as="geometry" />
        </mxCell>
        <mxCell id="FSPJa_IPfdp1LUm7yT-P-21" value="" style="endArrow=classic;html=1;rounded=0;exitX=0.54;exitY=0.96;exitDx=0;exitDy=0;exitPerimeter=0;" parent="1" edge="1">
          <mxGeometry x="1" y="-61" width="50" height="50" relative="1" as="geometry">
            <mxPoint x="340" y="309.87" as="sourcePoint" />
            <mxPoint x="392.5" y="310.04" as="targetPoint" />
            <mxPoint x="50" y="-26" as="offset" />
          </mxGeometry>
        </mxCell>
        <mxCell id="FSPJa_IPfdp1LUm7yT-P-22" value="false" style="edgeLabel;html=1;align=center;verticalAlign=middle;resizable=0;points=[];" parent="FSPJa_IPfdp1LUm7yT-P-21" vertex="1" connectable="0">
          <mxGeometry x="-0.2519" y="1" relative="1" as="geometry">
            <mxPoint as="offset" />
          </mxGeometry>
        </mxCell>
        <mxCell id="FSPJa_IPfdp1LUm7yT-P-23" value="" style="endArrow=classic;html=1;rounded=0;exitX=0.54;exitY=0.96;exitDx=0;exitDy=0;exitPerimeter=0;" parent="1" edge="1">
          <mxGeometry x="1" y="-61" width="50" height="50" relative="1" as="geometry">
            <mxPoint x="457" y="309.73" as="sourcePoint" />
            <mxPoint x="509.5" y="309.90000000000003" as="targetPoint" />
            <mxPoint x="50" y="-26" as="offset" />
          </mxGeometry>
        </mxCell>
        <mxCell id="FSPJa_IPfdp1LUm7yT-P-24" value="false" style="edgeLabel;html=1;align=center;verticalAlign=middle;resizable=0;points=[];" parent="FSPJa_IPfdp1LUm7yT-P-23" vertex="1" connectable="0">
          <mxGeometry x="-0.2519" y="1" relative="1" as="geometry">
            <mxPoint as="offset" />
          </mxGeometry>
        </mxCell>
        <mxCell id="FSPJa_IPfdp1LUm7yT-P-25" value="usia &amp;gt;65" style="rhombus;whiteSpace=wrap;html=1;" parent="1" vertex="1">
          <mxGeometry x="510" y="275" width="65" height="70" as="geometry" />
        </mxCell>
        <mxCell id="FSPJa_IPfdp1LUm7yT-P-26" value="" style="endArrow=classic;html=1;rounded=0;exitX=0.54;exitY=0.96;exitDx=0;exitDy=0;exitPerimeter=0;" parent="1" edge="1">
          <mxGeometry x="1" y="-61" width="50" height="50" relative="1" as="geometry">
            <mxPoint x="575" y="309.83000000000004" as="sourcePoint" />
            <mxPoint x="650" y="310" as="targetPoint" />
            <mxPoint x="50" y="-26" as="offset" />
          </mxGeometry>
        </mxCell>
        <mxCell id="FSPJa_IPfdp1LUm7yT-P-27" value="false" style="edgeLabel;html=1;align=center;verticalAlign=middle;resizable=0;points=[];" parent="FSPJa_IPfdp1LUm7yT-P-26" vertex="1" connectable="0">
          <mxGeometry x="-0.2519" y="1" relative="1" as="geometry">
            <mxPoint as="offset" />
          </mxGeometry>
        </mxCell>
        <mxCell id="FSPJa_IPfdp1LUm7yT-P-28" value="tidak valid" style="rounded=0;whiteSpace=wrap;html=1;" parent="1" vertex="1">
          <mxGeometry x="650" y="290" width="90" height="40" as="geometry" />
        </mxCell>
        <mxCell id="FSPJa_IPfdp1LUm7yT-P-29" value="true" style="endArrow=classic;html=1;rounded=0;exitX=0.54;exitY=0.96;exitDx=0;exitDy=0;exitPerimeter=0;" parent="1" edge="1">
          <mxGeometry width="50" height="50" relative="1" as="geometry">
            <mxPoint x="184.93" y="350" as="sourcePoint" />
            <mxPoint x="185" y="390" as="targetPoint" />
          </mxGeometry>
        </mxCell>
        <mxCell id="FSPJa_IPfdp1LUm7yT-P-30" value="anak" style="rounded=0;whiteSpace=wrap;html=1;" parent="1" vertex="1">
          <mxGeometry x="140" y="390" width="80" height="30" as="geometry" />
        </mxCell>
        <mxCell id="FSPJa_IPfdp1LUm7yT-P-32" value="true" style="endArrow=classic;html=1;rounded=0;exitX=0.54;exitY=0.96;exitDx=0;exitDy=0;exitPerimeter=0;entryX=0.438;entryY=0;entryDx=0;entryDy=0;entryPerimeter=0;" parent="1" target="FSPJa_IPfdp1LUm7yT-P-33" edge="1">
          <mxGeometry width="50" height="50" relative="1" as="geometry">
            <mxPoint x="304.63" y="340" as="sourcePoint" />
            <mxPoint x="305" y="380" as="targetPoint" />
          </mxGeometry>
        </mxCell>
        <mxCell id="FSPJa_IPfdp1LUm7yT-P-33" value="remaja" style="rounded=0;whiteSpace=wrap;html=1;" parent="1" vertex="1">
          <mxGeometry x="270" y="390" width="80" height="30" as="geometry" />
        </mxCell>
        <mxCell id="FSPJa_IPfdp1LUm7yT-P-35" value="dewasa" style="rounded=0;whiteSpace=wrap;html=1;" parent="1" vertex="1">
          <mxGeometry x="384.5" y="390" width="80" height="30" as="geometry" />
        </mxCell>
        <mxCell id="FSPJa_IPfdp1LUm7yT-P-36" value="lansia" style="rounded=0;whiteSpace=wrap;html=1;" parent="1" vertex="1">
          <mxGeometry x="502.5" y="390" width="80" height="30" as="geometry" />
        </mxCell>
        <mxCell id="FSPJa_IPfdp1LUm7yT-P-38" value="true" style="endArrow=classic;html=1;rounded=0;exitX=0.54;exitY=0.96;exitDx=0;exitDy=0;exitPerimeter=0;entryX=0.594;entryY=-0.1;entryDx=0;entryDy=0;entryPerimeter=0;" parent="1" edge="1">
          <mxGeometry width="50" height="50" relative="1" as="geometry">
            <mxPoint x="542.12" y="348" as="sourcePoint" />
            <mxPoint x="542.89" y="390" as="targetPoint" />
          </mxGeometry>
        </mxCell>
        <mxCell id="FSPJa_IPfdp1LUm7yT-P-39" value="true" style="endArrow=classic;html=1;rounded=0;exitX=0.54;exitY=0.96;exitDx=0;exitDy=0;exitPerimeter=0;entryX=0.594;entryY=-0.1;entryDx=0;entryDy=0;entryPerimeter=0;" parent="1" edge="1">
          <mxGeometry width="50" height="50" relative="1" as="geometry">
            <mxPoint x="425" y="345" as="sourcePoint" />
            <mxPoint x="425.77" y="387" as="targetPoint" />
          </mxGeometry>
        </mxCell>
        <mxCell id="FSPJa_IPfdp1LUm7yT-P-40" value="" style="endArrow=none;html=1;rounded=0;" parent="1" edge="1">
          <mxGeometry width="50" height="50" relative="1" as="geometry">
            <mxPoint x="543" y="480" as="sourcePoint" />
            <mxPoint x="543.2" y="420" as="targetPoint" />
          </mxGeometry>
        </mxCell>
        <mxCell id="FSPJa_IPfdp1LUm7yT-P-41" value="" style="endArrow=classic;html=1;rounded=0;" parent="1" edge="1">
          <mxGeometry width="50" height="50" relative="1" as="geometry">
            <mxPoint x="545" y="480" as="sourcePoint" />
            <mxPoint x="185" y="480" as="targetPoint" />
          </mxGeometry>
        </mxCell>
        <mxCell id="FSPJa_IPfdp1LUm7yT-P-43" value="" style="endArrow=none;html=1;rounded=0;" parent="1" edge="1">
          <mxGeometry width="50" height="50" relative="1" as="geometry">
            <mxPoint x="185" y="520" as="sourcePoint" />
            <mxPoint x="184.80000000000007" y="420" as="targetPoint" />
          </mxGeometry>
        </mxCell>
        <mxCell id="FSPJa_IPfdp1LUm7yT-P-45" value="output hasil" style="shape=parallelogram;perimeter=parallelogramPerimeter;whiteSpace=wrap;html=1;fixedSize=1;" parent="1" vertex="1">
          <mxGeometry x="137.5" y="520" width="100" height="40" as="geometry" />
        </mxCell>
        <mxCell id="FSPJa_IPfdp1LUm7yT-P-47" value="" style="endArrow=classic;html=1;rounded=0;exitX=0.54;exitY=0.96;exitDx=0;exitDy=0;exitPerimeter=0;" parent="1" edge="1">
          <mxGeometry width="50" height="50" relative="1" as="geometry">
            <mxPoint x="184.66" y="560" as="sourcePoint" />
            <mxPoint x="185" y="600" as="targetPoint" />
          </mxGeometry>
        </mxCell>
        <mxCell id="FSPJa_IPfdp1LUm7yT-P-48" value="selesai" style="ellipse;whiteSpace=wrap;html=1;" parent="1" vertex="1">
          <mxGeometry x="132.5" y="600" width="105" height="40" as="geometry" />
        </mxCell>
        <mxCell id="CWsd8JV_80r2TgQhBqyV-1" value="Mulai" style="ellipse;whiteSpace=wrap;html=1;" vertex="1" parent="1">
          <mxGeometry x="145" y="80" width="105" height="40" as="geometry" />
        </mxCell>
        <mxCell id="CWsd8JV_80r2TgQhBqyV-2" value="" style="endArrow=classic;html=1;rounded=0;exitX=0.54;exitY=0.96;exitDx=0;exitDy=0;exitPerimeter=0;" edge="1" parent="1">
          <mxGeometry width="50" height="50" relative="1" as="geometry">
            <mxPoint x="196.01" y="120" as="sourcePoint" />
            <mxPoint x="196" y="150" as="targetPoint" />
          </mxGeometry>
        </mxCell>
        <mxCell id="CWsd8JV_80r2TgQhBqyV-3" value="usia : int" style="shape=hexagon;perimeter=hexagonPerimeter2;whiteSpace=wrap;html=1;fixedSize=1;" vertex="1" parent="1">
          <mxGeometry x="143.75" y="150" width="107.5" height="40" as="geometry" />
        </mxCell>
        <mxCell id="CWsd8JV_80r2TgQhBqyV-4" value="input usia" style="shape=parallelogram;perimeter=parallelogramPerimeter;whiteSpace=wrap;html=1;fixedSize=1;" vertex="1" parent="1">
          <mxGeometry x="145" y="220" width="100" height="40" as="geometry" />
        </mxCell>
        <mxCell id="CWsd8JV_80r2TgQhBqyV-5" value="" style="endArrow=classic;html=1;rounded=0;exitX=0.54;exitY=0.96;exitDx=0;exitDy=0;exitPerimeter=0;" edge="1" parent="1">
          <mxGeometry width="50" height="50" relative="1" as="geometry">
            <mxPoint x="194.59" y="190" as="sourcePoint" />
            <mxPoint x="194.58" y="220" as="targetPoint" />
          </mxGeometry>
        </mxCell>
        <mxCell id="CWsd8JV_80r2TgQhBqyV-6" value="" style="endArrow=classic;html=1;rounded=0;exitX=0.54;exitY=0.96;exitDx=0;exitDy=0;exitPerimeter=0;" edge="1" parent="1">
          <mxGeometry width="50" height="50" relative="1" as="geometry">
            <mxPoint x="194.91" y="260" as="sourcePoint" />
            <mxPoint x="194.9" y="290" as="targetPoint" />
          </mxGeometry>
        </mxCell>
        <mxCell id="CWsd8JV_80r2TgQhBqyV-7" value="usia (0-12)" style="rhombus;whiteSpace=wrap;html=1;" vertex="1" parent="1">
          <mxGeometry x="162.5" y="290" width="65" height="70" as="geometry" />
        </mxCell>
        <mxCell id="CWsd8JV_80r2TgQhBqyV-8" value="usia (13-19)" style="rhombus;whiteSpace=wrap;html=1;" vertex="1" parent="1">
          <mxGeometry x="280" y="290" width="70" height="60" as="geometry" />
        </mxCell>
        <mxCell id="CWsd8JV_80r2TgQhBqyV-9" value="false" style="endArrow=classic;html=1;rounded=0;exitX=0.54;exitY=0.96;exitDx=0;exitDy=0;exitPerimeter=0;" edge="1" parent="1">
          <mxGeometry width="50" height="50" relative="1" as="geometry">
            <mxPoint x="227.5" y="324.83" as="sourcePoint" />
            <mxPoint x="280" y="325" as="targetPoint" />
          </mxGeometry>
        </mxCell>
        <mxCell id="CWsd8JV_80r2TgQhBqyV-10" value="usia (20-64" style="rhombus;whiteSpace=wrap;html=1;" vertex="1" parent="1">
          <mxGeometry x="402" y="285" width="65" height="70" as="geometry" />
        </mxCell>
        <mxCell id="CWsd8JV_80r2TgQhBqyV-11" value="" style="endArrow=classic;html=1;rounded=0;exitX=0.54;exitY=0.96;exitDx=0;exitDy=0;exitPerimeter=0;" edge="1" parent="1">
          <mxGeometry x="1" y="-61" width="50" height="50" relative="1" as="geometry">
            <mxPoint x="350" y="319.87" as="sourcePoint" />
            <mxPoint x="402.5" y="320.04" as="targetPoint" />
            <mxPoint x="50" y="-26" as="offset" />
          </mxGeometry>
        </mxCell>
        <mxCell id="CWsd8JV_80r2TgQhBqyV-12" value="false" style="edgeLabel;html=1;align=center;verticalAlign=middle;resizable=0;points=[];" vertex="1" connectable="0" parent="CWsd8JV_80r2TgQhBqyV-11">
          <mxGeometry x="-0.2519" y="1" relative="1" as="geometry">
            <mxPoint as="offset" />
          </mxGeometry>
        </mxCell>
        <mxCell id="CWsd8JV_80r2TgQhBqyV-13" value="" style="endArrow=classic;html=1;rounded=0;exitX=0.54;exitY=0.96;exitDx=0;exitDy=0;exitPerimeter=0;" edge="1" parent="1">
          <mxGeometry x="1" y="-61" width="50" height="50" relative="1" as="geometry">
            <mxPoint x="467" y="319.73" as="sourcePoint" />
            <mxPoint x="519.5" y="319.90000000000003" as="targetPoint" />
            <mxPoint x="50" y="-26" as="offset" />
          </mxGeometry>
        </mxCell>
        <mxCell id="CWsd8JV_80r2TgQhBqyV-14" value="false" style="edgeLabel;html=1;align=center;verticalAlign=middle;resizable=0;points=[];" vertex="1" connectable="0" parent="CWsd8JV_80r2TgQhBqyV-13">
          <mxGeometry x="-0.2519" y="1" relative="1" as="geometry">
            <mxPoint as="offset" />
          </mxGeometry>
        </mxCell>
        <mxCell id="CWsd8JV_80r2TgQhBqyV-15" value="usia &amp;gt;65" style="rhombus;whiteSpace=wrap;html=1;" vertex="1" parent="1">
          <mxGeometry x="520" y="285" width="65" height="70" as="geometry" />
        </mxCell>
        <mxCell id="CWsd8JV_80r2TgQhBqyV-16" value="" style="endArrow=classic;html=1;rounded=0;exitX=0.54;exitY=0.96;exitDx=0;exitDy=0;exitPerimeter=0;" edge="1" parent="1">
          <mxGeometry x="1" y="-61" width="50" height="50" relative="1" as="geometry">
            <mxPoint x="585" y="319.83000000000004" as="sourcePoint" />
            <mxPoint x="660" y="320" as="targetPoint" />
            <mxPoint x="50" y="-26" as="offset" />
          </mxGeometry>
        </mxCell>
        <mxCell id="CWsd8JV_80r2TgQhBqyV-17" value="false" style="edgeLabel;html=1;align=center;verticalAlign=middle;resizable=0;points=[];" vertex="1" connectable="0" parent="CWsd8JV_80r2TgQhBqyV-16">
          <mxGeometry x="-0.2519" y="1" relative="1" as="geometry">
            <mxPoint as="offset" />
          </mxGeometry>
        </mxCell>
        <mxCell id="CWsd8JV_80r2TgQhBqyV-18" value="tidak valid" style="rounded=0;whiteSpace=wrap;html=1;" vertex="1" parent="1">
          <mxGeometry x="660" y="300" width="90" height="40" as="geometry" />
        </mxCell>
        <mxCell id="CWsd8JV_80r2TgQhBqyV-19" value="true" style="endArrow=classic;html=1;rounded=0;exitX=0.54;exitY=0.96;exitDx=0;exitDy=0;exitPerimeter=0;" edge="1" parent="1">
          <mxGeometry width="50" height="50" relative="1" as="geometry">
            <mxPoint x="194.93" y="360" as="sourcePoint" />
            <mxPoint x="195" y="400" as="targetPoint" />
          </mxGeometry>
        </mxCell>
        <mxCell id="CWsd8JV_80r2TgQhBqyV-20" value="anak" style="rounded=0;whiteSpace=wrap;html=1;" vertex="1" parent="1">
          <mxGeometry x="150" y="400" width="80" height="30" as="geometry" />
        </mxCell>
        <mxCell id="CWsd8JV_80r2TgQhBqyV-21" value="true" style="endArrow=classic;html=1;rounded=0;exitX=0.54;exitY=0.96;exitDx=0;exitDy=0;exitPerimeter=0;entryX=0.438;entryY=0;entryDx=0;entryDy=0;entryPerimeter=0;" edge="1" target="CWsd8JV_80r2TgQhBqyV-22" parent="1">
          <mxGeometry width="50" height="50" relative="1" as="geometry">
            <mxPoint x="314.63" y="350" as="sourcePoint" />
            <mxPoint x="315" y="390" as="targetPoint" />
          </mxGeometry>
        </mxCell>
        <mxCell id="CWsd8JV_80r2TgQhBqyV-22" value="remaja" style="rounded=0;whiteSpace=wrap;html=1;" vertex="1" parent="1">
          <mxGeometry x="280" y="400" width="80" height="30" as="geometry" />
        </mxCell>
        <mxCell id="CWsd8JV_80r2TgQhBqyV-23" value="dewasa" style="rounded=0;whiteSpace=wrap;html=1;" vertex="1" parent="1">
          <mxGeometry x="394.5" y="400" width="80" height="30" as="geometry" />
        </mxCell>
        <mxCell id="CWsd8JV_80r2TgQhBqyV-24" value="lansia" style="rounded=0;whiteSpace=wrap;html=1;" vertex="1" parent="1">
          <mxGeometry x="512.5" y="400" width="80" height="30" as="geometry" />
        </mxCell>
        <mxCell id="CWsd8JV_80r2TgQhBqyV-25" value="true" style="endArrow=classic;html=1;rounded=0;exitX=0.54;exitY=0.96;exitDx=0;exitDy=0;exitPerimeter=0;entryX=0.594;entryY=-0.1;entryDx=0;entryDy=0;entryPerimeter=0;" edge="1" parent="1">
          <mxGeometry width="50" height="50" relative="1" as="geometry">
            <mxPoint x="552.12" y="358" as="sourcePoint" />
            <mxPoint x="552.89" y="400" as="targetPoint" />
          </mxGeometry>
        </mxCell>
        <mxCell id="CWsd8JV_80r2TgQhBqyV-26" value="true" style="endArrow=classic;html=1;rounded=0;exitX=0.54;exitY=0.96;exitDx=0;exitDy=0;exitPerimeter=0;entryX=0.594;entryY=-0.1;entryDx=0;entryDy=0;entryPerimeter=0;" edge="1" parent="1">
          <mxGeometry width="50" height="50" relative="1" as="geometry">
            <mxPoint x="435" y="355" as="sourcePoint" />
            <mxPoint x="435.77" y="397" as="targetPoint" />
          </mxGeometry>
        </mxCell>
        <mxCell id="CWsd8JV_80r2TgQhBqyV-27" value="" style="endArrow=none;html=1;rounded=0;" edge="1" parent="1">
          <mxGeometry width="50" height="50" relative="1" as="geometry">
            <mxPoint x="553" y="490" as="sourcePoint" />
            <mxPoint x="553.2" y="430" as="targetPoint" />
          </mxGeometry>
        </mxCell>
        <mxCell id="CWsd8JV_80r2TgQhBqyV-28" value="" style="endArrow=classic;html=1;rounded=0;" edge="1" parent="1">
          <mxGeometry width="50" height="50" relative="1" as="geometry">
            <mxPoint x="555" y="490" as="sourcePoint" />
            <mxPoint x="195" y="490" as="targetPoint" />
          </mxGeometry>
        </mxCell>
        <mxCell id="CWsd8JV_80r2TgQhBqyV-29" value="" style="endArrow=none;html=1;rounded=0;" edge="1" parent="1">
          <mxGeometry width="50" height="50" relative="1" as="geometry">
            <mxPoint x="195" y="530" as="sourcePoint" />
            <mxPoint x="194.80000000000007" y="430" as="targetPoint" />
          </mxGeometry>
        </mxCell>
        <mxCell id="CWsd8JV_80r2TgQhBqyV-30" value="output hasil" style="shape=parallelogram;perimeter=parallelogramPerimeter;whiteSpace=wrap;html=1;fixedSize=1;" vertex="1" parent="1">
          <mxGeometry x="147.5" y="530" width="100" height="40" as="geometry" />
        </mxCell>
        <mxCell id="CWsd8JV_80r2TgQhBqyV-31" value="" style="endArrow=classic;html=1;rounded=0;exitX=0.54;exitY=0.96;exitDx=0;exitDy=0;exitPerimeter=0;" edge="1" parent="1">
          <mxGeometry width="50" height="50" relative="1" as="geometry">
            <mxPoint x="194.66" y="570" as="sourcePoint" />
            <mxPoint x="195" y="610" as="targetPoint" />
          </mxGeometry>
        </mxCell>
        <mxCell id="CWsd8JV_80r2TgQhBqyV-32" value="selesai" style="ellipse;whiteSpace=wrap;html=1;" vertex="1" parent="1">
          <mxGeometry x="142.5" y="610" width="105" height="40" as="geometry" />
        </mxCell>
      </root>
    </mxGraphModel>
  </diagram>
  <diagram id="WYPXFknNb7NtwagdoUN0" name="Page-2">
    <mxGraphModel dx="1035" dy="551" grid="1" gridSize="10" guides="1" tooltips="1" connect="1" arrows="1" fold="1" page="1" pageScale="1" pageWidth="850" pageHeight="1100" math="0" shadow="0">
      <root>
        <mxCell id="0" />
        <mxCell id="1" parent="0" />
        <mxCell id="ZNpSC4lXCSmrDaD4aL3q-1" value="Mulai" style="ellipse;whiteSpace=wrap;html=1;" vertex="1" parent="1">
          <mxGeometry x="135" y="70" width="105" height="40" as="geometry" />
        </mxCell>
        <mxCell id="ZNpSC4lXCSmrDaD4aL3q-2" value="" style="endArrow=classic;html=1;rounded=0;exitX=0.54;exitY=0.96;exitDx=0;exitDy=0;exitPerimeter=0;" edge="1" parent="1">
          <mxGeometry width="50" height="50" relative="1" as="geometry">
            <mxPoint x="186.01" y="110" as="sourcePoint" />
            <mxPoint x="186" y="140" as="targetPoint" />
          </mxGeometry>
        </mxCell>
        <mxCell id="ZNpSC4lXCSmrDaD4aL3q-3" value="usia : int" style="shape=hexagon;perimeter=hexagonPerimeter2;whiteSpace=wrap;html=1;fixedSize=1;" vertex="1" parent="1">
          <mxGeometry x="133.75" y="140" width="107.5" height="40" as="geometry" />
        </mxCell>
        <mxCell id="ZNpSC4lXCSmrDaD4aL3q-4" value="input usia" style="shape=parallelogram;perimeter=parallelogramPerimeter;whiteSpace=wrap;html=1;fixedSize=1;" vertex="1" parent="1">
          <mxGeometry x="135" y="210" width="100" height="40" as="geometry" />
        </mxCell>
        <mxCell id="ZNpSC4lXCSmrDaD4aL3q-5" value="" style="endArrow=classic;html=1;rounded=0;exitX=0.54;exitY=0.96;exitDx=0;exitDy=0;exitPerimeter=0;" edge="1" parent="1">
          <mxGeometry width="50" height="50" relative="1" as="geometry">
            <mxPoint x="184.59" y="180" as="sourcePoint" />
            <mxPoint x="184.58" y="210" as="targetPoint" />
          </mxGeometry>
        </mxCell>
        <mxCell id="ZNpSC4lXCSmrDaD4aL3q-6" value="" style="endArrow=classic;html=1;rounded=0;exitX=0.54;exitY=0.96;exitDx=0;exitDy=0;exitPerimeter=0;" edge="1" parent="1">
          <mxGeometry width="50" height="50" relative="1" as="geometry">
            <mxPoint x="184.91" y="250" as="sourcePoint" />
            <mxPoint x="184.9" y="280" as="targetPoint" />
          </mxGeometry>
        </mxCell>
        <mxCell id="ZNpSC4lXCSmrDaD4aL3q-7" value="usia (0-12)" style="rhombus;whiteSpace=wrap;html=1;" vertex="1" parent="1">
          <mxGeometry x="152.5" y="280" width="65" height="70" as="geometry" />
        </mxCell>
        <mxCell id="ZNpSC4lXCSmrDaD4aL3q-8" value="usia (13-19)" style="rhombus;whiteSpace=wrap;html=1;" vertex="1" parent="1">
          <mxGeometry x="270" y="280" width="70" height="60" as="geometry" />
        </mxCell>
        <mxCell id="ZNpSC4lXCSmrDaD4aL3q-9" value="false" style="endArrow=classic;html=1;rounded=0;exitX=0.54;exitY=0.96;exitDx=0;exitDy=0;exitPerimeter=0;" edge="1" parent="1">
          <mxGeometry width="50" height="50" relative="1" as="geometry">
            <mxPoint x="217.5" y="314.83" as="sourcePoint" />
            <mxPoint x="270" y="315" as="targetPoint" />
          </mxGeometry>
        </mxCell>
        <mxCell id="ZNpSC4lXCSmrDaD4aL3q-10" value="usia (20-64" style="rhombus;whiteSpace=wrap;html=1;" vertex="1" parent="1">
          <mxGeometry x="392" y="275" width="65" height="70" as="geometry" />
        </mxCell>
        <mxCell id="ZNpSC4lXCSmrDaD4aL3q-11" value="" style="endArrow=classic;html=1;rounded=0;exitX=0.54;exitY=0.96;exitDx=0;exitDy=0;exitPerimeter=0;" edge="1" parent="1">
          <mxGeometry x="1" y="-61" width="50" height="50" relative="1" as="geometry">
            <mxPoint x="340" y="309.87" as="sourcePoint" />
            <mxPoint x="392.5" y="310.04" as="targetPoint" />
            <mxPoint x="50" y="-26" as="offset" />
          </mxGeometry>
        </mxCell>
        <mxCell id="ZNpSC4lXCSmrDaD4aL3q-12" value="false" style="edgeLabel;html=1;align=center;verticalAlign=middle;resizable=0;points=[];" vertex="1" connectable="0" parent="ZNpSC4lXCSmrDaD4aL3q-11">
          <mxGeometry x="-0.2519" y="1" relative="1" as="geometry">
            <mxPoint as="offset" />
          </mxGeometry>
        </mxCell>
        <mxCell id="ZNpSC4lXCSmrDaD4aL3q-13" value="" style="endArrow=classic;html=1;rounded=0;exitX=0.54;exitY=0.96;exitDx=0;exitDy=0;exitPerimeter=0;" edge="1" parent="1">
          <mxGeometry x="1" y="-61" width="50" height="50" relative="1" as="geometry">
            <mxPoint x="457" y="309.73" as="sourcePoint" />
            <mxPoint x="509.5" y="309.90000000000003" as="targetPoint" />
            <mxPoint x="50" y="-26" as="offset" />
          </mxGeometry>
        </mxCell>
        <mxCell id="ZNpSC4lXCSmrDaD4aL3q-14" value="false" style="edgeLabel;html=1;align=center;verticalAlign=middle;resizable=0;points=[];" vertex="1" connectable="0" parent="ZNpSC4lXCSmrDaD4aL3q-13">
          <mxGeometry x="-0.2519" y="1" relative="1" as="geometry">
            <mxPoint as="offset" />
          </mxGeometry>
        </mxCell>
        <mxCell id="ZNpSC4lXCSmrDaD4aL3q-15" value="usia &amp;gt;65" style="rhombus;whiteSpace=wrap;html=1;" vertex="1" parent="1">
          <mxGeometry x="510" y="275" width="65" height="70" as="geometry" />
        </mxCell>
        <mxCell id="ZNpSC4lXCSmrDaD4aL3q-16" value="" style="endArrow=classic;html=1;rounded=0;exitX=0.54;exitY=0.96;exitDx=0;exitDy=0;exitPerimeter=0;" edge="1" parent="1">
          <mxGeometry x="1" y="-61" width="50" height="50" relative="1" as="geometry">
            <mxPoint x="575" y="309.83000000000004" as="sourcePoint" />
            <mxPoint x="650" y="310" as="targetPoint" />
            <mxPoint x="50" y="-26" as="offset" />
          </mxGeometry>
        </mxCell>
        <mxCell id="ZNpSC4lXCSmrDaD4aL3q-17" value="false" style="edgeLabel;html=1;align=center;verticalAlign=middle;resizable=0;points=[];" vertex="1" connectable="0" parent="ZNpSC4lXCSmrDaD4aL3q-16">
          <mxGeometry x="-0.2519" y="1" relative="1" as="geometry">
            <mxPoint as="offset" />
          </mxGeometry>
        </mxCell>
        <mxCell id="ZNpSC4lXCSmrDaD4aL3q-18" value="tidak valid" style="rounded=0;whiteSpace=wrap;html=1;" vertex="1" parent="1">
          <mxGeometry x="650" y="290" width="90" height="40" as="geometry" />
        </mxCell>
        <mxCell id="ZNpSC4lXCSmrDaD4aL3q-19" value="true" style="endArrow=classic;html=1;rounded=0;exitX=0.54;exitY=0.96;exitDx=0;exitDy=0;exitPerimeter=0;" edge="1" parent="1">
          <mxGeometry width="50" height="50" relative="1" as="geometry">
            <mxPoint x="184.93" y="350" as="sourcePoint" />
            <mxPoint x="185" y="390" as="targetPoint" />
          </mxGeometry>
        </mxCell>
        <mxCell id="ZNpSC4lXCSmrDaD4aL3q-20" value="anak" style="rounded=0;whiteSpace=wrap;html=1;" vertex="1" parent="1">
          <mxGeometry x="140" y="390" width="80" height="30" as="geometry" />
        </mxCell>
        <mxCell id="ZNpSC4lXCSmrDaD4aL3q-21" value="true" style="endArrow=classic;html=1;rounded=0;exitX=0.54;exitY=0.96;exitDx=0;exitDy=0;exitPerimeter=0;entryX=0.438;entryY=0;entryDx=0;entryDy=0;entryPerimeter=0;" edge="1" parent="1" target="ZNpSC4lXCSmrDaD4aL3q-22">
          <mxGeometry width="50" height="50" relative="1" as="geometry">
            <mxPoint x="304.63" y="340" as="sourcePoint" />
            <mxPoint x="305" y="380" as="targetPoint" />
          </mxGeometry>
        </mxCell>
        <mxCell id="ZNpSC4lXCSmrDaD4aL3q-22" value="remaja" style="rounded=0;whiteSpace=wrap;html=1;" vertex="1" parent="1">
          <mxGeometry x="270" y="390" width="80" height="30" as="geometry" />
        </mxCell>
        <mxCell id="ZNpSC4lXCSmrDaD4aL3q-23" value="dewasa" style="rounded=0;whiteSpace=wrap;html=1;" vertex="1" parent="1">
          <mxGeometry x="384.5" y="390" width="80" height="30" as="geometry" />
        </mxCell>
        <mxCell id="ZNpSC4lXCSmrDaD4aL3q-24" value="lansia" style="rounded=0;whiteSpace=wrap;html=1;" vertex="1" parent="1">
          <mxGeometry x="502.5" y="390" width="80" height="30" as="geometry" />
        </mxCell>
        <mxCell id="ZNpSC4lXCSmrDaD4aL3q-25" value="true" style="endArrow=classic;html=1;rounded=0;exitX=0.54;exitY=0.96;exitDx=0;exitDy=0;exitPerimeter=0;entryX=0.594;entryY=-0.1;entryDx=0;entryDy=0;entryPerimeter=0;" edge="1" parent="1">
          <mxGeometry width="50" height="50" relative="1" as="geometry">
            <mxPoint x="542.12" y="348" as="sourcePoint" />
            <mxPoint x="542.89" y="390" as="targetPoint" />
          </mxGeometry>
        </mxCell>
        <mxCell id="ZNpSC4lXCSmrDaD4aL3q-26" value="true" style="endArrow=classic;html=1;rounded=0;exitX=0.54;exitY=0.96;exitDx=0;exitDy=0;exitPerimeter=0;entryX=0.594;entryY=-0.1;entryDx=0;entryDy=0;entryPerimeter=0;" edge="1" parent="1">
          <mxGeometry width="50" height="50" relative="1" as="geometry">
            <mxPoint x="425" y="345" as="sourcePoint" />
            <mxPoint x="425.77" y="387" as="targetPoint" />
          </mxGeometry>
        </mxCell>
        <mxCell id="ZNpSC4lXCSmrDaD4aL3q-27" value="" style="endArrow=none;html=1;rounded=0;" edge="1" parent="1">
          <mxGeometry width="50" height="50" relative="1" as="geometry">
            <mxPoint x="543" y="480" as="sourcePoint" />
            <mxPoint x="543.2" y="420" as="targetPoint" />
          </mxGeometry>
        </mxCell>
        <mxCell id="ZNpSC4lXCSmrDaD4aL3q-28" value="" style="endArrow=classic;html=1;rounded=0;" edge="1" parent="1">
          <mxGeometry width="50" height="50" relative="1" as="geometry">
            <mxPoint x="545" y="480" as="sourcePoint" />
            <mxPoint x="185" y="480" as="targetPoint" />
          </mxGeometry>
        </mxCell>
        <mxCell id="ZNpSC4lXCSmrDaD4aL3q-29" value="" style="endArrow=none;html=1;rounded=0;" edge="1" parent="1">
          <mxGeometry width="50" height="50" relative="1" as="geometry">
            <mxPoint x="185" y="520" as="sourcePoint" />
            <mxPoint x="184.80000000000007" y="420" as="targetPoint" />
          </mxGeometry>
        </mxCell>
        <mxCell id="ZNpSC4lXCSmrDaD4aL3q-30" value="output hasil" style="shape=parallelogram;perimeter=parallelogramPerimeter;whiteSpace=wrap;html=1;fixedSize=1;" vertex="1" parent="1">
          <mxGeometry x="137.5" y="520" width="100" height="40" as="geometry" />
        </mxCell>
        <mxCell id="ZNpSC4lXCSmrDaD4aL3q-31" value="" style="endArrow=classic;html=1;rounded=0;exitX=0.54;exitY=0.96;exitDx=0;exitDy=0;exitPerimeter=0;" edge="1" parent="1">
          <mxGeometry width="50" height="50" relative="1" as="geometry">
            <mxPoint x="184.66" y="560" as="sourcePoint" />
            <mxPoint x="185" y="600" as="targetPoint" />
          </mxGeometry>
        </mxCell>
        <mxCell id="ZNpSC4lXCSmrDaD4aL3q-32" value="selesai" style="ellipse;whiteSpace=wrap;html=1;" vertex="1" parent="1">
          <mxGeometry x="132.5" y="600" width="105" height="40" as="geometry" />
        </mxCell>
      </root>
    </mxGraphModel>
  </diagram>
</mxfile>
